<svg width="57" height="14" viewBox="0 0 57 14" fill="none" xmlns="http://www.w3.org/2000/svg">
<path d="M0.734375 0.789062H3.21094V7.10938L9.65625 0.789062H12.8281L6.8125 6.61719L12.8281 13H9.53125L5.03125 8.34375L3.21094 10.1016V13H0.734375V0.789062ZM13.3281 6.85938C13.3281 5.9375 13.4974 5.09375 13.8359 4.32812C14.1745 3.5625 14.6484 2.90625 15.2578 2.35938C15.8724 1.80729 16.6068 1.38021 17.4609 1.07812C18.3203 0.776042 19.2708 0.625 20.3125 0.625C21.349 0.625 22.2969 0.776042 23.1562 1.07812C24.0156 1.38021 24.75 1.80729 25.3594 2.35938C25.974 2.90625 26.4505 3.5625 26.7891 4.32812C27.1276 5.09375 27.2969 5.9375 27.2969 6.85938C27.2969 7.78646 27.1276 8.63802 26.7891 9.41406C26.4505 10.1849 25.974 10.849 25.3594 11.4062C24.75 11.9635 24.0156 12.3984 23.1562 12.7109C22.2969 13.0182 21.349 13.1719 20.3125 13.1719C19.2708 13.1719 18.3203 13.0182 17.4609 12.7109C16.6068 12.3984 15.8724 11.9635 15.2578 11.4062C14.6484 10.849 14.1745 10.1849 13.8359 9.41406C13.4974 8.63802 13.3281 7.78646 13.3281 6.85938ZM15.8047 6.85938C15.8047 7.48958 15.9167 8.05729 16.1406 8.5625C16.3698 9.06771 16.6849 9.5 17.0859 9.85938C17.4922 10.2135 17.9688 10.487 18.5156 10.6797C19.0677 10.8724 19.6667 10.9688 20.3125 10.9688C20.9583 10.9688 21.5547 10.8724 22.1016 10.6797C22.6536 10.487 23.1302 10.2135 23.5312 9.85938C23.9323 9.5 24.2474 9.06771 24.4766 8.5625C24.7057 8.05729 24.8203 7.48958 24.8203 6.85938C24.8203 6.22917 24.7057 5.66406 24.4766 5.16406C24.2474 4.66406 23.9323 4.24219 23.5312 3.89844C23.1302 3.54948 22.6536 3.28385 22.1016 3.10156C21.5547 2.91927 20.9583 2.82812 20.3125 2.82812C19.6667 2.82812 19.0677 2.91927 18.5156 3.10156C17.9688 3.28385 17.4922 3.54948 17.0859 3.89844C16.6849 4.24219 16.3698 4.66406 16.1406 5.16406C15.9167 5.66406 15.8047 6.22917 15.8047 6.85938ZM28.4141 0.789062H31.1562L34.9922 10.1016L38.8281 0.789062H41.5703L36.2188 13H33.7656L28.4141 0.789062ZM47.5703 0.789062H50.1953L56.1016 13H53.5L52.5234 10.9453H45.3906L44.4453 13H41.8359L47.5703 0.789062ZM51.5469 8.90625L48.9062 3.35938L46.3359 8.90625H51.5469Z" fill="#25283D"/>
</svg>
