<svg width="244" height="244" viewBox="0 0 244 244" fill="none" xmlns="http://www.w3.org/2000/svg">
<path d="M65.5962 65.5962C79.7921 51.4003 90.004 41.2064 98.8075 34.4197C107.473 27.739 114.042 24.9537 120.84 24.7433C121.613 24.7194 122.387 24.7194 123.16 24.7433C129.958 24.9537 136.527 27.739 145.193 34.4197C153.996 41.2064 164.208 51.4003 178.404 65.5962C192.6 79.7921 202.794 90.004 209.58 98.8075C216.261 107.473 219.046 114.042 219.257 120.84C219.281 121.613 219.281 122.387 219.257 123.16C219.046 129.958 216.261 136.527 209.58 145.193C202.794 153.996 192.6 164.208 178.404 178.404C164.208 192.6 153.996 202.794 145.193 209.58C136.527 216.261 129.958 219.046 123.16 219.257C122.387 219.281 121.613 219.281 120.84 219.257C114.042 219.046 107.473 216.261 98.8075 209.58C90.004 202.794 79.7921 192.6 65.5962 178.404C51.4003 164.208 41.2064 153.996 34.4197 145.193C27.739 136.527 24.9537 129.958 24.7433 123.16C24.7194 122.387 24.7194 121.613 24.7433 120.84C24.9537 114.042 27.739 107.473 34.4197 98.8075C41.2064 90.004 51.4003 79.7921 65.5962 65.5962Z" stroke="#25283D" stroke-width="13"/>
<path d="M70.5962 70.5962C98.9857 42.2067 145.014 42.2067 173.404 70.5962C201.793 98.9857 201.793 145.014 173.404 173.404C145.014 201.793 98.9857 201.793 70.5962 173.404C42.2067 145.014 42.2067 98.9857 70.5962 70.5962Z" stroke="#25283D" stroke-width="13"/>
<path d="M77.714 114.792C78.8469 107.832 79.3256 104.978 80.0075 102.717C84.9025 86.484 100.081 75.5548 117.028 76.0601C119.389 76.1305 122.247 76.5813 129.208 77.7142C136.168 78.847 139.022 79.3258 141.283 80.0076C157.516 84.9026 168.445 100.081 167.94 117.029C167.87 119.389 167.419 122.247 166.286 129.208C165.153 136.168 164.674 139.022 163.992 141.283C159.097 157.516 143.919 168.445 126.972 167.94C124.611 167.87 121.753 167.419 114.792 166.286C107.832 165.153 104.978 164.674 102.717 163.993C86.4839 159.098 75.5546 143.919 76.06 126.972C76.1304 124.611 76.5812 121.753 77.714 114.792Z" stroke="#25283D" stroke-width="13"/>
<path d="M81.8698 115.469C85.477 93.3056 106.368 78.2629 128.531 81.87C150.694 85.4772 165.737 106.368 162.13 128.531C158.523 150.695 137.632 165.737 115.469 162.13C93.3053 158.523 78.2627 137.632 81.8698 115.469Z" stroke="#25283D" stroke-width="13"/>
</svg>
