<?xml version="1.0" standalone="no"?>
<!DOCTYPE svg PUBLIC "-//W3C//DTD SVG 20010904//EN"
 "http://www.w3.org/TR/2001/REC-SVG-20010904/DTD/svg10.dtd">
<svg version="1.0" xmlns="http://www.w3.org/2000/svg"
 width="700.000000pt" height="700.000000pt" viewBox="0 0 700.000000 700.000000"
 preserveAspectRatio="xMidYMid meet">
<metadata>
Created by potrace 1.14, written by Peter Selinger 2001-2017
</metadata>
<g transform="translate(0.000000,700.000000) scale(0.100000,-0.100000)"
fill="#000000" stroke="none">
<path d="M3342 6463 c-274 -43 -533 -202 -941 -578 -170 -156 -900 -880 -1141
-1131 -389 -407 -573 -652 -672 -899 -11 -27 -21 -57 -23 -65 -2 -8 -11 -46
-20 -85 -18 -74 -25 -275 -12 -354 21 -135 86 -299 175 -441 25 -41 50 -79 54
-85 4 -5 42 -55 84 -110 42 -55 93 -118 113 -141 217 -244 341 -372 817 -848
586 -586 763 -750 994 -923 198 -148 414 -248 585 -270 66 -9 227 -9 290 0
262 35 567 221 944 572 283 263 1070 1050 1306 1306 433 468 589 769 579 1115
-4 135 -11 175 -51 294 -84 249 -294 534 -712 964 -199 205 -863 867 -1012
1007 -466 443 -740 620 -1039 675 -67 12 -235 11 -318 -3z m265 -368 c53 -8
146 -40 197 -69 23 -13 59 -33 81 -46 38 -21 83 -52 115 -77 8 -6 51 -40 95
-74 71 -55 98 -78 164 -139 9 -8 35 -31 56 -49 22 -19 31 -31 20 -27 -132 55
-371 115 -550 140 -130 17 -442 18 -570 0 -182 -25 -406 -82 -550 -140 -23 -9
112 111 238 213 291 234 470 302 704 268z m163 -715 c423 -67 775 -244 1071
-539 200 -201 345 -425 440 -682 29 -80 75 -243 83 -298 3 -14 10 -60 17 -101
14 -85 18 -370 6 -474 -21 -194 -92 -434 -180 -615 -28 -58 -55 -108 -59 -109
-4 -2 -8 -8 -8 -13 0 -17 -103 -169 -175 -259 -53 -65 -239 -243 -310 -297
-241 -181 -548 -319 -800 -359 -20 -3 -47 -8 -59 -10 -112 -22 -427 -25 -556
-5 -155 24 -363 79 -455 121 -187 84 -285 140 -424 243 -96 70 -264 231 -337
320 -115 142 -240 362 -304 537 -85 230 -118 433 -114 695 1 94 5 181 8 195 2
14 7 42 10 63 24 155 86 361 155 510 199 428 581 789 1019 961 92 36 232 80
287 89 17 3 53 10 80 15 28 6 82 14 120 17 39 4 72 9 74 10 8 8 343 -4 411
-15z m-2425 -1165 c-39 -115 -80 -291 -100 -425 -14 -93 -13 -473 1 -574 18
-126 52 -294 65 -318 5 -10 7 -18 5 -18 -3 0 12 -51 34 -112 l40 -113 -38 40
c-182 190 -362 443 -416 586 -58 154 -51 326 18 483 32 72 161 273 196 306 3
3 24 27 45 55 22 27 50 61 63 75 12 14 46 53 75 86 28 34 53 61 54 60 1 -1
-18 -60 -42 -131z m4401 -20 c43 -50 95 -113 132 -160 10 -13 93 -135 109
-161 33 -52 85 -171 100 -227 18 -71 20 -210 4 -280 -39 -168 -205 -420 -443
-672 l-38 -40 29 82 c29 80 64 200 76 259 44 219 48 251 49 479 1 127 -3 259
-7 295 -20 155 -72 372 -122 508 l-25 67 42 -45 c24 -25 66 -72 94 -105z
m-3058 -2815 c80 -44 359 -114 552 -137 84 -10 447 -10 525 0 173 23 357 66
493 115 45 17 82 27 82 22 0 -5 -4 -10 -9 -12 -7 -3 -59 -46 -146 -123 -212
-187 -422 -311 -576 -341 -62 -12 -194 -7 -259 10 -157 41 -395 197 -625 410
-66 62 -77 78 -37 56z"/>
<path d="M3257 5004 c-1 -1 -33 -5 -72 -8 -474 -43 -914 -401 -1058 -862 -22
-68 -53 -214 -71 -329 -2 -16 -9 -59 -15 -95 -6 -36 -13 -82 -17 -104 -3 -21
-7 -48 -10 -59 -24 -128 -21 -362 6 -467 5 -19 11 -46 13 -60 11 -58 62 -192
108 -280 189 -361 530 -601 944 -664 35 -6 163 -27 250 -42 198 -35 354 -44
480 -30 419 48 794 305 978 671 83 165 104 242 156 560 48 291 55 354 54 470
-7 509 -349 984 -833 1157 -30 11 -66 22 -79 24 -14 3 -27 7 -31 9 -5 3 -227
44 -330 60 -19 3 -60 10 -90 15 -30 5 -75 12 -100 15 -25 3 -65 8 -90 12 -44
6 -188 12 -193 7z m418 -541 c210 -40 373 -128 525 -283 135 -138 231 -322
264 -507 19 -111 13 -307 -13 -405 -47 -178 -126 -320 -246 -442 -93 -95 -110
-110 -190 -159 -153 -94 -309 -139 -497 -142 -280 -5 -513 88 -709 284 -129
129 -214 279 -260 456 -17 70 -23 119 -23 220 -1 128 2 156 23 245 88 376 398
666 784 735 92 16 252 15 342 -2z"/>
</g>
</svg>
